{
  "accessors": [
    {
      "bufferView": 2,
      "componentType": 5126,
      "count": 172,
      "max": [
        0.39660269021987915,
        0.597972571849823,
        0.044500090181827545
      ],
      "min": [
        -0.3966027498245239,
        -0.5979726314544678,
        -0.04450009763240814
      ],
      "type": "VEC3"
    },
    {
      "bufferView": 2,
      "byteOffset": 2064,
      "componentType": 5126,
      "count": 172,
      "max": [
        0.9616564512252808,
        0.9676812887191772,
        0.9833621978759766
      ],
      "min": [
        -0.9591930508613586,
        -0.967681348323822,
        -1.0
      ],
      "type": "VEC3"
    },
    {
      "bufferView": 3,
      "componentType": 5126,
      "count": 172,
      "max": [
        0.9153691530227661,
        0.980445146560669,
        0.9957175254821777,
        1.0
      ],
      "min": [
        -0.9404512643814087,
        -0.6217373013496399,
        -0.9955371618270874,
        1.0
      ],
      "type": "VEC4"
    },
    {
      "bufferView": 1,
      "componentType": 5126,
      "count": 172,
      "max": [
        0.9911458492279053,
        0.9929460883140564
      ],
      "min": [
        0.006201603915542364,
        0.007436997722834349
      ],
      "type": "VEC2"
    },
    {
      "bufferView": 1,
      "byteOffset": 1376,
      "componentType": 5126,
      "count": 172,
      "max": [
        0.9911458492279053,
        0.9929460883140564
      ],
      "min": [
        0.006201603915542364,
        0.007436997722834349
      ],
      "type": "VEC2"
    },
    {
      "bufferView": 1,
      "byteOffset": 2752,
      "componentType": 5126,
      "count": 172,
      "max": [
        0.9911458492279053,
        0.9929460883140564
      ],
      "min": [
        0.006201603915542364,
        0.007436997722834349
      ],
      "type": "VEC2"
    },
    {
      "bufferView": 0,
      "componentType": 5125,
      "count": 756,
      "type": "SCALAR"
    }
  ],
  "asset": {
    "extras": {
      "author": "plaggy (https://sketchfab.com/plaggy)",
      "license": "CC-BY-4.0 (http://creativecommons.org/licenses/by/4.0/)",
      "source": "https://sketchfab.com/3d-models/cc0-color-spot-2-f0c6c040b86f4b42af3b3b49b9e6a23b",
      "title": "CC0 - Color Spot 2"
    },
    "generator": "Sketchfab-12.64.0",
    "version": "2.0"
  },
  "bufferViews": [
    {
      "buffer": 0,
      "byteLength": 3024,
      "name": "floatBufferViews",
      "target": 34963
    },
    {
      "buffer": 0,
      "byteLength": 4128,
      "byteOffset": 3024,
      "byteStride": 8,
      "name": "floatBufferViews",
      "target": 34962
    },
    {
      "buffer": 0,
      "byteLength": 4128,
      "byteOffset": 7152,
      "byteStride": 12,
      "name": "floatBufferViews",
      "target": 34962
    },
    {
      "buffer": 0,
      "byteLength": 2752,
      "byteOffset": 11280,
      "byteStride": 16,
      "name": "floatBufferViews",
      "target": 34962
    }
  ],
  "buffers": [
    {
      "byteLength": 14032,
      "uri": "scene.bin"
    }
  ],
  "images": [
    {
      "uri": "textures/ColorSpot2_baseColor.png"
    },
    {
      "uri": "textures/ColorSpot2_metallicRoughness.png"
    },
    {
      "uri": "textures/ColorSpot2_normal.png"
    }
  ],
  "materials": [
    {
      "doubleSided": true,
      "name": "ColorSpot2",
      "normalTexture": {
        "index": 2
      },
      "pbrMetallicRoughness": {
        "baseColorTexture": {
          "index": 0
        },
        "metallicRoughnessTexture": {
          "index": 1
        }
      }
    }
  ],
  "meshes": [
    {
      "name": "ColorSpot2_ColorSpot2_0",
      "primitives": [
        {
          "attributes": {
            "NORMAL": 1,
            "POSITION": 0,
            "TANGENT": 2,
            "TEXCOORD_0": 3,
            "TEXCOORD_1": 4,
            "TEXCOORD_2": 5
          },
          "indices": 6,
          "material": 0,
          "mode": 4
        }
      ]
    }
  ],
  "nodes": [
    {
      "children": [
        1
      ],
      "matrix": [
        1.0,
        0.0,
        0.0,
        0.0,
        0.0,
        2.220446049250313e-16,
        -1.0,
        0.0,
        0.0,
        1.0,
        2.220446049250313e-16,
        0.0,
        0.0,
        0.0,
        0.0,
        1.0
      ],
      "name": "Sketchfab_model"
    },
    {
      "children": [
        2
      ],
      "matrix": [
        1.0,
        0.0,
        0.0,
        0.0,
        0.0,
        0.0,
        1.0,
        0.0,
        0.0,
        -1.0,
        0.0,
        0.0,
        0.0,
        0.0,
        0.0,
        1.0
      ],
      "name": "3bf2ed3286c644439f107e7d7308dfca.fbx"
    },
    {
      "children": [
        3
      ],
      "name": "RootNode"
    },
    {
      "children": [
        4
      ],
      "matrix": [
        0.02539999969303608,
        0.0,
        0.0,
        0.0,
        0.0,
        5.639932896936113e-18,
        -0.02539999969303608,
        0.0,
        0.0,
        0.02539999969303608,
        5.639932896936113e-18,
        0.0,
        0.0,
        0.0,
        0.0,
        1.0
      ],
      "name": "ColorSpot2"
    },
    {
      "mesh": 0,
      "name": "ColorSpot2_ColorSpot2_0"
    }
  ],
  "samplers": [
    {
      "magFilter": 9729,
      "minFilter": 9987,
      "wrapS": 10497,
      "wrapT": 10497
    }
  ],
  "scene": 0,
  "scenes": [
    {
      "name": "Sketchfab_Scene",
      "nodes": [
        0
      ]
    }
  ],
  "textures": [
    {
      "sampler": 0,
      "source": 0
    },
    {
      "sampler": 0,
      "source": 1
    },
    {
      "sampler": 0,
      "source": 2
    }
  ]
}
